<svg xmlns="http://www.w3.org/2000/svg" xmlns:xlink="http://www.w3.org/1999/xlink" width="500" zoomAndPan="magnify" viewBox="0 0 375 374.999991" height="500" preserveAspectRatio="xMidYMid meet" version="1.2"><defs><clipPath id="fbf30d0b79"><path d="M 79 131.867188 L 110 131.867188 L 110 166 L 79 166 Z M 79 131.867188 "/></clipPath><clipPath id="88c2369e0e"><path d="M 59.78125 140 L 127 140 L 127 191 L 59.78125 191 Z M 59.78125 140 "/></clipPath><clipPath id="42e24b258c"><path d="M 118 160 L 140.78125 160 L 140.78125 185 L 118 185 Z M 118 160 "/></clipPath><clipPath id="6b070ff511"><path d="M 84 180 L 135 180 L 135 242.867188 L 84 242.867188 Z M 84 180 "/></clipPath><clipPath id="2293597a79"><path d="M 235 290.066406 L 237 290.066406 L 237 293 L 235 293 Z M 235 290.066406 "/></clipPath><clipPath id="d2b4c44490"><path d="M 233.878906 290.066406 L 239 290.066406 L 239 294 L 233.878906 294 Z M 233.878906 290.066406 "/></clipPath><clipPath id="a211371843"><path d="M 235 293 L 239 293 L 239 296.816406 L 235 296.816406 Z M 235 293 "/></clipPath></defs><g id="526476309f"><rect x="0" width="375" y="0" height="374.999991" style="fill:#ffffff;fill-opacity:1;stroke:none;"/><rect x="0" width="375" y="0" height="374.999991" style="fill:#509904;fill-opacity:1;stroke:none;"/><g clip-rule="nonzero" clip-path="url(#fbf30d0b79)"><path style=" stroke:none;fill-rule:nonzero;fill:#ffffff;fill-opacity:1;" d="M 79.457031 138.160156 C 79.421875 138.785156 79.609375 139.382812 79.597656 140.003906 C 79.867188 141.085938 79.9375 142.210938 80.335938 143.257812 C 80.734375 144.300781 81.074219 145.324219 81.441406 146.355469 C 81.792969 147.179688 82.207031 147.96875 82.683594 148.726562 C 83.011719 149.171875 83.09375 149.761719 83.484375 150.171875 C 83.871094 150.582031 84.117188 151.027344 84.421875 151.460938 C 84.726562 151.898438 85.089844 152.214844 85.347656 152.648438 C 85.605469 153.082031 86.242188 153.5625 86.699219 153.996094 C 87.328125 154.796875 88.070312 155.464844 88.929688 156.003906 C 89.597656 156.570312 90.339844 157.039062 91.03125 157.542969 C 91.417969 157.824219 91.910156 157.859375 92.296875 158.140625 C 92.6875 158.421875 93.308594 158.695312 93.824219 158.953125 C 94.339844 159.210938 94.730469 159.527344 95.246094 159.679688 C 96.289062 159.960938 97.195312 160.582031 98.203125 160.949219 C 98.90625 161.382812 99.765625 161.429688 100.492188 161.828125 C 101.21875 162.226562 101.667969 162.332031 102.265625 162.578125 C 103.285156 162.824219 104.167969 163.496094 105.222656 163.648438 C 105.90625 163.941406 106.621094 164.175781 107.289062 164.503906 C 107.957031 164.832031 108.734375 165.125 109.519531 165.21875 C 109.542969 164.902344 109.273438 164.714844 109.097656 164.480469 C 108.921875 164.246094 108.652344 163.90625 108.359375 163.707031 C 107.792969 163.332031 107.488281 162.707031 107.019531 162.226562 C 106.550781 161.746094 106.023438 161.417969 105.679688 160.867188 C 105.339844 160.3125 104.660156 159.773438 104.167969 159.210938 C 103.675781 158.648438 103.273438 158.152344 102.757812 157.683594 C 102.242188 157.214844 102.089844 156.863281 101.714844 156.5 C 101.066406 155.734375 100.28125 155.089844 99.730469 154.246094 C 99.472656 153.796875 98.941406 153.632812 98.695312 153.175781 C 98.25 152.460938 97.582031 151.945312 97.054688 151.296875 C 96.523438 150.652344 96.3125 150.160156 95.738281 149.773438 C 95.164062 149.382812 94.789062 148.46875 94.140625 147.964844 C 93.496094 147.460938 93.261719 146.8125 92.6875 146.367188 C 92.144531 145.558594 91.441406 144.886719 90.773438 144.183594 C 90.421875 143.679688 90.066406 143.175781 89.609375 142.75 C 89.375 142.515625 89.070312 142.351562 88.894531 142.058594 C 88.546875 141.476562 88.113281 140.96875 87.589844 140.53125 C 87.097656 140.179688 86.886719 139.59375 86.511719 139.148438 C 86.136719 138.703125 85.582031 138.363281 85.21875 137.855469 C 85.007812 137.5625 84.878906 137.199219 84.585938 136.964844 C 84.121094 136.578125 83.691406 136.15625 83.292969 135.695312 C 83.140625 135.460938 83.046875 135.167969 82.800781 135.003906 C 82.144531 134.476562 81.640625 133.808594 81.171875 133.113281 C 80.710938 132.75 80.382812 132.269531 79.972656 131.871094 C 79.808594 132.1875 79.820312 132.550781 79.726562 132.878906 C 79.492188 133.757812 79.492188 134.675781 79.375 135.578125 C 79.257812 136.484375 79.304688 137.304688 79.457031 138.160156 Z M 79.457031 138.160156 "/></g><g clip-rule="nonzero" clip-path="url(#88c2369e0e)"><path style=" stroke:none;fill-rule:nonzero;fill:#ffffff;fill-opacity:1;" d="M 72.484375 166.089844 C 72.882812 166.617188 73.539062 166.828125 74.066406 167.203125 C 74.972656 168.179688 76.179688 168.777344 77.285156 169.492188 C 77.847656 169.761719 78.28125 170.257812 78.871094 170.492188 C 79.246094 170.65625 79.65625 170.761719 79.972656 171.042969 C 80.289062 171.324219 80.898438 171.605469 81.371094 171.886719 C 81.839844 172.171875 82.050781 172.429688 82.484375 172.511719 C 83.246094 172.652344 83.777344 173.273438 84.46875 173.566406 C 85.160156 173.859375 85.523438 174.199219 86.113281 174.414062 C 86.699219 174.625 87.332031 174.964844 87.910156 175.292969 C 88.753906 175.714844 89.574219 176.207031 90.492188 176.464844 C 91.03125 176.691406 91.523438 177.03125 92.0625 177.253906 C 93.4375 177.839844 94.789062 178.496094 96.195312 179.027344 C 96.640625 179.238281 97.066406 179.484375 97.546875 179.625 C 98.25 179.835938 98.847656 180.363281 99.589844 180.46875 C 100.328125 180.574219 100.738281 180.890625 101.265625 181.1875 C 101.796875 181.480469 102.113281 181.480469 102.523438 181.691406 C 102.933594 181.902344 103.472656 181.984375 103.933594 182.195312 C 104.390625 182.40625 104.964844 182.664062 105.503906 182.804688 C 106.046875 182.945312 106.398438 183.226562 106.878906 183.347656 C 107.300781 183.445312 107.703125 183.601562 108.085938 183.804688 C 108.5 184.027344 108.980469 184.0625 109.414062 184.238281 C 111.046875 185.011719 112.75 185.625 114.34375 186.457031 C 114.835938 186.691406 115.226562 187.089844 115.707031 187.335938 C 117.019531 188.078125 117.949219 189.296875 118.804688 190.507812 C 119.203125 190.425781 119.511719 190.15625 119.886719 190.023438 C 120.253906 189.902344 120.601562 189.730469 120.929688 189.519531 C 121.539062 189.144531 122.210938 188.875 122.738281 188.394531 C 123.007812 188.148438 123.382812 188.078125 123.710938 187.9375 C 124.042969 187.792969 124.394531 187.453125 124.734375 187.207031 C 125.449219 186.773438 126.140625 186.304688 126.824219 185.8125 C 126.519531 185.269531 126.425781 184.636719 126.058594 184.121094 C 125.695312 183.605469 125.390625 182.863281 124.910156 182.347656 C 124.429688 181.832031 124.253906 181.09375 123.664062 180.65625 C 123.078125 180.222656 122.820312 179.847656 122.492188 179.367188 C 122.164062 178.886719 121.292969 178.542969 120.859375 177.957031 C 120.546875 177.5625 120.179688 177.230469 119.757812 176.960938 C 119.015625 176.597656 118.453125 175.972656 117.785156 175.515625 C 117.113281 175.058594 116.292969 174.496094 115.519531 174.023438 C 115.015625 173.71875 114.613281 173.238281 114.027344 173.074219 C 113.441406 172.910156 113.101562 172.488281 112.605469 172.230469 C 111.925781 171.863281 111.363281 171.300781 110.613281 171.078125 C 109.859375 170.855469 109.238281 170.222656 108.5 169.90625 C 108.074219 169.703125 107.710938 169.375 107.253906 169.246094 C 106.796875 169.117188 106.433594 168.835938 106.011719 168.636719 C 105.339844 168.179688 104.589844 167.851562 103.886719 167.460938 C 103.179688 167.074219 102.265625 166.652344 101.445312 166.265625 C 100.960938 166.007812 100.503906 165.726562 100.011719 165.503906 C 99.261719 165.289062 98.625 164.820312 97.945312 164.480469 C 97.511719 164.257812 97.066406 164.046875 96.640625 163.800781 C 96.21875 163.554688 95.363281 163.332031 94.8125 162.917969 C 94.257812 162.507812 93.730469 162.355469 93.203125 162.0625 C 92.546875 161.558594 91.746094 161.335938 91.03125 160.949219 C 90.316406 160.558594 89.738281 160.242188 89.128906 159.808594 C 88.519531 159.375 87.96875 159.375 87.460938 159 C 86.59375 158.398438 85.65625 157.917969 84.75 157.378906 C 83.625 156.863281 82.660156 156.0625 81.546875 155.523438 C 80.734375 155.019531 79.972656 154.433594 79.152344 153.925781 C 77.988281 153.492188 77.144531 152.507812 76.027344 151.980469 C 75.125 151.449219 74.375 150.699219 73.433594 150.230469 C 72.777344 149.902344 72.285156 149.335938 71.660156 148.960938 C 71.332031 148.726562 70.933594 148.621094 70.617188 148.375 C 70.167969 147.988281 69.695312 147.636719 69.195312 147.320312 C 68.902344 147.117188 68.691406 146.8125 68.386719 146.613281 C 68.082031 146.414062 67.90625 146.402344 67.683594 146.261719 C 67.011719 145.910156 66.589844 145.21875 65.886719 144.910156 C 65.179688 144.605469 64.851562 144.136719 64.347656 143.75 C 63.113281 142.921875 61.9375 142.023438 60.8125 141.050781 C 60.53125 140.804688 60.25 140.558594 59.886719 140.414062 C 59.785156 141.375 59.847656 142.320312 60.074219 143.257812 C 60.132812 144.710938 60.730469 146.074219 60.992188 147.496094 C 61.085938 148.128906 61.414062 148.703125 61.554688 149.324219 C 61.695312 149.949219 61.988281 150.417969 62.140625 150.980469 C 62.292969 151.542969 62.808594 152.273438 62.972656 152.976562 C 63.015625 153.183594 63.082031 153.382812 63.175781 153.574219 C 63.527344 154.199219 63.820312 154.832031 64.125 155.476562 C 64.347656 155.875 64.710938 156.214844 64.804688 156.6875 C 64.898438 157.15625 65.40625 157.71875 65.6875 158.246094 C 65.96875 158.777344 66.636719 159.527344 66.988281 160.242188 C 67.191406 160.644531 67.460938 160.992188 67.800781 161.289062 C 68.246094 161.6875 68.5625 162.191406 68.867188 162.695312 C 68.996094 162.917969 69.21875 163.046875 69.40625 163.214844 C 70.019531 163.660156 70.417969 164.328125 70.957031 164.832031 C 71.542969 165.160156 72.050781 165.578125 72.484375 166.089844 Z M 72.484375 166.089844 "/></g><g clip-rule="nonzero" clip-path="url(#42e24b258c)"><path style=" stroke:none;fill-rule:nonzero;fill:#ffffff;fill-opacity:1;" d="M 139.289062 160.792969 C 138.375 160.429688 137.339844 160.441406 136.402344 160.722656 C 135.710938 160.792969 135.121094 161.230469 134.441406 161.359375 C 134.03125 161.453125 133.65625 161.628906 133.269531 161.792969 C 132.222656 161.441406 131.167969 160.792969 130.015625 161.03125 C 128.867188 161.265625 127.9375 161.464844 126.917969 161.757812 C 126.128906 162.101562 125.378906 162.515625 124.664062 162.988281 C 123.984375 163.613281 123.101562 164.011719 122.597656 164.796875 C 122.386719 165.160156 122.035156 165.410156 121.742188 165.703125 C 121.351562 166.21875 120.929688 166.710938 120.613281 167.285156 C 120.039062 167.96875 119.429688 168.625 118.980469 169.398438 C 118.746094 169.820312 118.21875 170.140625 118.3125 170.691406 C 118.769531 170.949219 119.097656 171.359375 119.390625 171.792969 C 119.949219 172.371094 120.472656 172.980469 120.964844 173.613281 C 121.304688 174.117188 121.660156 174.636719 122.117188 175.058594 C 122.574219 175.480469 122.632812 175.996094 122.984375 176.417969 C 123.335938 176.84375 123.535156 176.972656 123.757812 177.289062 C 124.183594 177.792969 124.40625 178.414062 124.816406 178.933594 C 125.226562 179.449219 125.554688 180.058594 125.976562 180.585938 C 126.402344 181.117188 126.554688 181.773438 126.929688 182.324219 C 127.492188 183.132812 127.855469 184.085938 128.480469 184.859375 C 128.769531 184.660156 129.050781 184.441406 129.3125 184.203125 C 129.898438 183.570312 130.15625 182.722656 130.648438 182.019531 C 131.074219 181.117188 131.566406 180.1875 131.601562 179.15625 C 131.824219 177.910156 131.660156 176.632812 131.800781 175.375 C 131.820312 174.6875 131.886719 174.007812 132 173.332031 C 132.292969 171.78125 132.738281 170.222656 133.667969 168.929688 C 133.878906 168.601562 133.867188 168.179688 134.136719 167.886719 C 134.546875 167.390625 134.898438 166.851562 135.300781 166.347656 C 135.875 165.3125 136.953125 164.703125 137.683594 163.800781 C 138.175781 163.226562 138.972656 163.109375 139.535156 162.601562 C 139.914062 162.285156 140.417969 162.203125 140.839844 161.980469 L 140.863281 161.769531 C 140.417969 161.335938 139.84375 161.066406 139.289062 160.792969 Z M 139.289062 160.792969 "/></g><path style=" stroke:none;fill-rule:nonzero;fill:#ffffff;fill-opacity:1;" d="M 87.660156 192.253906 C 88.53125 192.5625 89.28125 193.160156 90.199219 193.3125 C 90.867188 193.453125 91.417969 193.875 92.074219 194.050781 C 92.734375 194.226562 93.15625 194.496094 93.71875 194.617188 C 94.28125 194.734375 94.492188 194.886719 94.882812 195.027344 C 95.902344 195.332031 96.972656 195.496094 97.957031 195.90625 C 98.648438 196.128906 99.390625 196.140625 100.070312 196.398438 C 101.019531 196.585938 101.9375 196.90625 102.875 197.140625 C 103.472656 197.011719 103.992188 196.632812 104.578125 196.433594 C 105.375 196.164062 106.082031 195.648438 106.914062 195.507812 C 107.746094 195.367188 108.453125 194.722656 109.320312 194.601562 C 110.292969 194.25 111.222656 193.746094 112.195312 193.394531 C 113.441406 193.078125 114.566406 192.445312 115.730469 191.914062 C 116.492188 191.808594 117.164062 191.375 117.832031 191.011719 C 117.527344 190.671875 117.222656 190.320312 116.914062 189.976562 C 116.128906 189.238281 115.179688 188.722656 114.273438 188.160156 C 113.6875 187.960938 113.207031 187.546875 112.617188 187.382812 C 111.363281 186.972656 110.1875 186.328125 108.898438 186 C 107.605469 185.671875 106.5625 185.328125 105.410156 184.917969 C 104.578125 184.71875 103.804688 184.320312 102.945312 184.203125 C 102.089844 184.085938 101.324219 183.769531 100.5625 183.429688 C 99.800781 183.085938 98.71875 182.910156 97.828125 182.546875 C 97.511719 182.429688 97.160156 182.394531 96.828125 182.3125 C 95.410156 181.796875 93.964844 181.339844 92.558594 180.785156 C 90.855469 180.269531 89.210938 179.613281 87.566406 178.945312 C 87.074219 178.648438 86.511719 178.496094 85.960938 178.332031 C 85.40625 178.167969 85.101562 177.921875 84.65625 177.757812 C 84.210938 177.59375 83.484375 177.171875 82.859375 176.925781 C 82.238281 176.679688 81.875 176.621094 81.417969 176.382812 C 79.902344 175.515625 78.257812 174.871094 76.699219 174.070312 C 75.136719 173.273438 73.632812 172.59375 72.25 171.605469 C 71.753906 171.253906 71.191406 171.03125 70.6875 170.703125 C 70.429688 171.019531 70.535156 171.453125 70.582031 171.828125 C 70.746094 172.558594 70.921875 173.296875 71.144531 174.011719 C 71.367188 174.730469 71.742188 175.84375 72.203125 176.703125 C 72.4375 177.265625 72.554688 177.863281 72.859375 178.390625 C 73.316406 179.121094 73.703125 179.882812 74.160156 180.609375 C 74.621094 181.339844 74.996094 182.160156 75.617188 182.769531 C 75.980469 183.132812 76.144531 183.652344 76.449219 184.0625 C 77.039062 184.613281 77.660156 185.152344 78.082031 185.835938 C 78.328125 186.1875 78.75 186.328125 79.046875 186.632812 C 79.339844 186.9375 79.714844 187.289062 80.042969 187.628906 C 80.371094 187.972656 80.96875 188.265625 81.40625 188.605469 C 81.839844 188.945312 81.921875 189.191406 82.296875 189.332031 C 82.671875 189.472656 83.082031 189.625 83.414062 189.882812 C 84.148438 190.460938 84.945312 190.945312 85.796875 191.339844 C 86.441406 191.597656 87.0625 191.902344 87.660156 192.253906 Z M 87.660156 192.253906 "/><g clip-rule="nonzero" clip-path="url(#6b070ff511)"><path style=" stroke:none;fill-rule:nonzero;fill:#ffffff;fill-opacity:1;" d="M 134.160156 182.242188 C 133.925781 181.667969 133.984375 180.996094 133.644531 180.46875 C 133.375 180.492188 133.503906 180.832031 133.457031 181.007812 C 133.480469 181.949219 133.011719 182.769531 132.703125 183.617188 C 132.503906 184.121094 132.128906 184.53125 131.953125 185.035156 C 131.648438 186.117188 130.507812 186.644531 130.039062 187.640625 C 129.898438 187.972656 129.546875 188.078125 129.289062 188.289062 C 129.03125 188.5 128.421875 188.980469 128.078125 189.425781 C 127.738281 189.871094 127.023438 189.988281 126.589844 190.402344 C 125.8125 191.117188 124.886719 191.621094 123.972656 192.136719 C 123.054688 192.65625 122.292969 193.21875 121.328125 193.511719 C 120.882812 193.628906 120.542969 193.957031 120.132812 194.144531 C 119.453125 194.4375 118.757812 194.722656 118.125 195.109375 C 117.820312 195.308594 117.445312 195.355469 117.125 195.519531 C 116.140625 195.988281 115.109375 196.375 114.121094 196.871094 C 113.617188 197.035156 113.195312 197.386719 112.667969 197.480469 C 111.820312 197.632812 111.140625 198.195312 110.339844 198.476562 C 109.765625 198.664062 109.273438 199.050781 108.664062 199.171875 C 108.050781 199.289062 107.570312 199.722656 106.996094 199.921875 C 106.234375 200.203125 105.5625 200.671875 104.765625 200.847656 C 103.96875 201.023438 103.664062 201.4375 103.085938 201.683594 C 102.511719 201.929688 101.679688 202.480469 100.890625 202.679688 C 100.328125 202.808594 99.929688 203.265625 99.425781 203.511719 C 98.695312 203.878906 98.0625 204.40625 97.300781 204.699219 C 96.535156 204.992188 95.890625 205.730469 95.117188 206.132812 C 94.339844 206.53125 93.941406 207.011719 93.34375 207.433594 C 93.074219 207.621094 92.875 207.902344 92.605469 208.089844 C 91.820312 208.628906 91.121094 209.257812 90.503906 209.980469 C 89.972656 210.464844 89.386719 210.910156 89.011719 211.53125 C 88.8125 211.871094 88.496094 212.128906 88.25 212.421875 C 87.625 213.1875 87.109375 214.042969 86.59375 214.890625 C 86.078125 215.734375 85.703125 216.378906 85.488281 217.214844 C 85.394531 217.8125 85.019531 218.339844 84.984375 218.949219 C 84.949219 219.5625 84.738281 220.03125 84.726562 220.582031 C 84.703125 221.675781 84.691406 222.753906 84.75 223.84375 C 84.925781 224.75 85.089844 225.652344 85.21875 226.570312 C 85.5625 228.109375 86.039062 229.609375 86.652344 231.066406 C 87.027344 231.710938 87.0625 232.507812 87.507812 233.121094 C 87.957031 233.730469 88.085938 234.246094 88.460938 234.75 C 88.988281 235.457031 89.222656 236.359375 89.914062 236.933594 C 90.339844 237.273438 90.527344 237.804688 90.820312 238.25 C 91.113281 238.695312 91.476562 238.835938 91.792969 239.152344 C 92.140625 239.480469 92.449219 239.839844 92.722656 240.234375 C 92.910156 240.527344 93.261719 240.621094 93.542969 240.820312 C 94.28125 241.324219 94.917969 241.984375 95.714844 242.40625 C 96.089844 242.582031 96.324219 242.957031 96.710938 243.121094 C 96.441406 242.6875 96.160156 242.265625 95.996094 241.78125 C 95.832031 241.300781 95.410156 240.84375 95.210938 240.316406 C 95.050781 239.871094 94.867188 239.4375 94.660156 239.011719 C 94.410156 238.566406 94.410156 238.039062 94.222656 237.570312 C 93.882812 236.734375 93.765625 235.84375 93.554688 234.972656 C 93.390625 234.292969 93.4375 233.578125 93.296875 232.894531 C 93.238281 231.769531 93.261719 230.65625 93.296875 229.527344 C 93.449219 228.695312 93.460938 227.824219 93.742188 227.015625 C 93.929688 226.476562 93.976562 225.886719 94.222656 225.359375 C 94.574219 224.65625 94.636719 223.832031 95.09375 223.164062 C 95.972656 221.78125 96.605469 220.207031 97.769531 219.03125 C 98.050781 218.738281 98.132812 218.328125 98.390625 218.023438 C 99.144531 217.449219 99.742188 216.695312 100.316406 215.957031 C 101.113281 215.523438 101.65625 214.78125 102.253906 214.125 C 102.746094 213.808594 103.320312 213.5625 103.675781 213.082031 C 104.027344 212.597656 104.753906 212.164062 105.375 211.847656 C 106.519531 210.90625 107.746094 210.097656 109.0625 209.417969 C 109.625 208.996094 110.199219 208.574219 110.871094 208.339844 C 111.539062 208.101562 112.195312 207.574219 112.9375 207.339844 C 112.648438 207.550781 112.367188 207.773438 112.101562 208.007812 C 111.855469 208.234375 111.515625 208.351562 111.316406 208.632812 C 110.8125 209.265625 110.175781 209.769531 109.566406 210.285156 C 109.246094 210.742188 108.875 211.15625 108.453125 211.519531 C 107.582031 212.164062 107.03125 213.140625 106.199219 213.820312 C 105.703125 213.996094 105.632812 214.582031 105.28125 214.914062 C 104.824219 215.511719 104.109375 215.886719 103.769531 216.578125 C 103.355469 217.460938 102.417969 217.929688 102.007812 218.820312 C 101.761719 219.398438 101.230469 219.761719 100.914062 220.289062 C 100.351562 221.019531 99.835938 221.785156 99.367188 222.578125 C 98.988281 223.175781 98.355469 223.632812 98.203125 224.351562 C 98.050781 225.066406 97.558594 225.300781 97.335938 225.839844 C 97.105469 226.304688 96.847656 226.75 96.558594 227.179688 C 96.335938 227.507812 96.289062 227.90625 96.136719 228.257812 C 95.984375 228.613281 95.808594 228.964844 95.773438 229.363281 C 96.511719 229.140625 97.289062 229.304688 98.027344 229.117188 C 98.4375 229.023438 98.847656 228.953125 99.261719 228.882812 C 99.90625 228.835938 100.503906 228.53125 101.136719 228.449219 C 101.773438 228.363281 102.488281 228.011719 103.191406 227.882812 C 103.898438 227.753906 104.648438 227.226562 105.421875 227.0625 C 105.988281 226.875 106.46875 226.476562 107.03125 226.277344 C 107.59375 226.074219 107.933594 225.675781 108.417969 225.417969 C 108.710938 225.230469 109.085938 225.183594 109.320312 224.902344 C 109.929688 224.257812 110.636719 223.714844 111.28125 223.117188 C 111.925781 222.519531 112.347656 221.6875 112.984375 221.0625 C 113.265625 220.570312 113.488281 220.019531 113.875 219.609375 C 114.261719 219.195312 114.707031 218.480469 115.132812 217.917969 C 115.695312 217.15625 116.152344 216.296875 116.796875 215.59375 C 117.1875 215.042969 117.410156 214.359375 117.902344 213.878906 C 118.394531 213.398438 118.6875 212.707031 119.085938 212.117188 C 119.488281 211.53125 119.96875 210.746094 120.507812 210.121094 C 121.046875 209.5 121.292969 208.820312 121.800781 208.246094 C 122.117188 207.925781 122.445312 207.597656 122.621094 207.175781 C 122.796875 206.753906 123.253906 206.402344 123.582031 206.027344 C 123.914062 205.648438 124.335938 204.921875 124.816406 204.441406 C 125.296875 203.960938 125.753906 203.277344 126.273438 202.726562 C 126.789062 202.175781 127.070312 201.578125 127.574219 201.082031 C 128.078125 200.589844 128.195312 200.203125 128.46875 199.746094 C 129.710938 198.453125 130.414062 196.773438 131.484375 195.355469 C 131.882812 194.839844 131.964844 194.167969 132.316406 193.628906 C 132.667969 193.089844 132.878906 192.335938 133.234375 191.714844 C 133.363281 191.46875 133.398438 191.1875 133.46875 190.929688 C 133.585938 190.320312 133.9375 189.777344 134.042969 189.15625 C 134.136719 188.3125 134.335938 187.476562 134.417969 186.632812 C 134.429688 185.527344 134.511719 184.425781 134.324219 183.332031 C 134.289062 182.980469 134.3125 182.59375 134.160156 182.242188 Z M 134.160156 182.242188 "/></g><g clip-rule="nonzero" clip-path="url(#2293597a79)"><path style=" stroke:none;fill-rule:nonzero;fill:#ffffff;fill-opacity:1;" d="M 235.101562 290.464844 C 235.101562 290.5 235.113281 290.539062 235.113281 290.578125 C 235.128906 290.644531 235.132812 290.714844 235.15625 290.78125 C 235.183594 290.84375 235.203125 290.90625 235.226562 290.972656 C 235.25 291.023438 235.273438 291.074219 235.304688 291.121094 C 235.324219 291.148438 235.328125 291.183594 235.355469 291.210938 C 235.378906 291.234375 235.394531 291.261719 235.410156 291.289062 C 235.429688 291.316406 235.453125 291.335938 235.46875 291.363281 C 235.484375 291.390625 235.523438 291.421875 235.554688 291.445312 C 235.59375 291.496094 235.640625 291.539062 235.691406 291.570312 C 235.734375 291.605469 235.78125 291.636719 235.824219 291.667969 C 235.847656 291.683594 235.878906 291.6875 235.902344 291.703125 C 235.925781 291.722656 235.964844 291.738281 235.996094 291.753906 C 236.027344 291.769531 236.050781 291.789062 236.085938 291.800781 C 236.148438 291.816406 236.207031 291.855469 236.269531 291.878906 C 236.3125 291.90625 236.367188 291.910156 236.410156 291.933594 C 236.457031 291.957031 236.484375 291.964844 236.519531 291.980469 C 236.585938 291.996094 236.640625 292.039062 236.703125 292.046875 C 236.746094 292.066406 236.792969 292.078125 236.832031 292.101562 C 236.875 292.121094 236.921875 292.140625 236.972656 292.144531 C 236.972656 292.125 236.957031 292.113281 236.945312 292.097656 C 236.933594 292.085938 236.917969 292.0625 236.898438 292.050781 C 236.863281 292.027344 236.84375 291.988281 236.816406 291.957031 C 236.789062 291.929688 236.753906 291.910156 236.734375 291.875 C 236.710938 291.839844 236.667969 291.804688 236.640625 291.769531 C 236.609375 291.734375 236.582031 291.707031 236.550781 291.675781 C 236.519531 291.648438 236.511719 291.625 236.488281 291.601562 C 236.445312 291.554688 236.398438 291.515625 236.363281 291.460938 C 236.347656 291.433594 236.316406 291.425781 236.300781 291.394531 C 236.269531 291.351562 236.230469 291.320312 236.195312 291.28125 C 236.164062 291.238281 236.152344 291.207031 236.117188 291.183594 C 236.078125 291.160156 236.054688 291.105469 236.015625 291.070312 C 235.976562 291.039062 235.960938 291 235.925781 290.972656 C 235.890625 290.921875 235.847656 290.882812 235.808594 290.835938 C 235.785156 290.804688 235.761719 290.773438 235.734375 290.75 C 235.71875 290.734375 235.699219 290.722656 235.691406 290.707031 C 235.667969 290.667969 235.640625 290.636719 235.609375 290.609375 C 235.578125 290.589844 235.566406 290.550781 235.542969 290.523438 C 235.519531 290.496094 235.484375 290.476562 235.460938 290.445312 C 235.449219 290.425781 235.441406 290.402344 235.421875 290.386719 C 235.394531 290.363281 235.367188 290.339844 235.34375 290.308594 C 235.332031 290.296875 235.328125 290.277344 235.3125 290.265625 C 235.269531 290.234375 235.238281 290.191406 235.210938 290.148438 C 235.179688 290.125 235.160156 290.097656 235.136719 290.070312 C 235.125 290.089844 235.125 290.113281 235.121094 290.136719 C 235.105469 290.191406 235.105469 290.246094 235.097656 290.300781 C 235.089844 290.359375 235.09375 290.410156 235.101562 290.464844 Z M 235.101562 290.464844 "/></g><g clip-rule="nonzero" clip-path="url(#d2b4c44490)"><path style=" stroke:none;fill-rule:nonzero;fill:#ffffff;fill-opacity:1;" d="M 234.671875 292.199219 C 234.695312 292.230469 234.734375 292.246094 234.769531 292.269531 C 234.824219 292.328125 234.898438 292.367188 234.96875 292.410156 C 235.003906 292.425781 235.03125 292.457031 235.066406 292.472656 C 235.089844 292.484375 235.117188 292.488281 235.136719 292.507812 C 235.15625 292.523438 235.191406 292.542969 235.222656 292.558594 C 235.25 292.578125 235.265625 292.59375 235.292969 292.597656 C 235.339844 292.605469 235.371094 292.644531 235.414062 292.664062 C 235.457031 292.683594 235.480469 292.703125 235.515625 292.714844 C 235.554688 292.730469 235.59375 292.75 235.628906 292.769531 C 235.679688 292.796875 235.730469 292.828125 235.789062 292.84375 C 235.824219 292.859375 235.851562 292.878906 235.886719 292.890625 C 235.972656 292.929688 236.054688 292.96875 236.144531 293.003906 C 236.171875 293.015625 236.199219 293.03125 236.226562 293.039062 C 236.269531 293.054688 236.308594 293.085938 236.355469 293.09375 C 236.402344 293.097656 236.425781 293.117188 236.457031 293.136719 C 236.492188 293.15625 236.511719 293.15625 236.535156 293.167969 C 236.5625 293.179688 236.597656 293.1875 236.625 293.199219 C 236.652344 293.210938 236.6875 293.230469 236.722656 293.238281 C 236.753906 293.246094 236.777344 293.265625 236.808594 293.269531 C 236.832031 293.277344 236.859375 293.285156 236.882812 293.300781 C 236.910156 293.3125 236.9375 293.316406 236.964844 293.328125 C 237.066406 293.375 237.171875 293.414062 237.273438 293.464844 C 237.300781 293.480469 237.328125 293.503906 237.355469 293.519531 C 237.4375 293.566406 237.496094 293.640625 237.550781 293.714844 C 237.574219 293.710938 237.59375 293.695312 237.617188 293.6875 C 237.640625 293.679688 237.660156 293.667969 237.679688 293.65625 C 237.71875 293.632812 237.761719 293.613281 237.792969 293.585938 C 237.808594 293.570312 237.832031 293.566406 237.855469 293.554688 C 237.875 293.546875 237.894531 293.527344 237.917969 293.511719 C 237.960938 293.484375 238.003906 293.453125 238.046875 293.425781 C 238.027344 293.390625 238.023438 293.351562 238 293.320312 C 237.976562 293.289062 237.957031 293.242188 237.929688 293.210938 C 237.898438 293.175781 237.886719 293.132812 237.851562 293.105469 C 237.8125 293.078125 237.796875 293.054688 237.777344 293.023438 C 237.757812 292.992188 237.703125 292.972656 237.675781 292.9375 C 237.65625 292.910156 237.632812 292.890625 237.609375 292.875 C 237.5625 292.851562 237.527344 292.8125 237.484375 292.785156 C 237.445312 292.757812 237.394531 292.722656 237.34375 292.691406 C 237.3125 292.671875 237.289062 292.644531 237.25 292.632812 C 237.214844 292.621094 237.195312 292.597656 237.164062 292.582031 C 237.121094 292.558594 237.085938 292.523438 237.039062 292.507812 C 236.992188 292.496094 236.953125 292.457031 236.910156 292.4375 C 236.882812 292.421875 236.859375 292.402344 236.832031 292.394531 C 236.800781 292.386719 236.78125 292.371094 236.753906 292.355469 C 236.710938 292.328125 236.664062 292.308594 236.621094 292.285156 C 236.578125 292.261719 236.519531 292.234375 236.46875 292.210938 C 236.441406 292.195312 236.410156 292.175781 236.378906 292.164062 C 236.335938 292.148438 236.292969 292.121094 236.253906 292.097656 C 236.226562 292.085938 236.199219 292.070312 236.171875 292.054688 C 236.144531 292.042969 236.09375 292.027344 236.058594 292 C 236.023438 291.976562 235.992188 291.964844 235.957031 291.949219 C 235.917969 291.917969 235.867188 291.902344 235.824219 291.878906 C 235.777344 291.855469 235.742188 291.835938 235.703125 291.808594 C 235.667969 291.78125 235.632812 291.78125 235.601562 291.757812 C 235.546875 291.722656 235.488281 291.691406 235.433594 291.65625 C 235.363281 291.625 235.300781 291.574219 235.234375 291.542969 C 235.183594 291.511719 235.136719 291.472656 235.085938 291.441406 C 235.011719 291.414062 234.960938 291.355469 234.890625 291.320312 C 234.835938 291.289062 234.789062 291.242188 234.730469 291.214844 C 234.6875 291.191406 234.65625 291.15625 234.617188 291.132812 C 234.597656 291.121094 234.574219 291.113281 234.554688 291.097656 C 234.527344 291.074219 234.496094 291.050781 234.464844 291.03125 C 234.449219 291.019531 234.433594 291 234.414062 290.988281 C 234.394531 290.976562 234.386719 290.976562 234.371094 290.964844 C 234.328125 290.945312 234.304688 290.902344 234.261719 290.882812 C 234.214844 290.863281 234.195312 290.835938 234.164062 290.808594 C 234.085938 290.757812 234.015625 290.703125 233.945312 290.640625 C 233.925781 290.628906 233.910156 290.613281 233.886719 290.601562 C 233.882812 290.664062 233.886719 290.722656 233.898438 290.78125 C 233.902344 290.871094 233.941406 290.953125 233.957031 291.042969 C 233.960938 291.082031 233.980469 291.117188 233.992188 291.15625 C 234 291.195312 234.019531 291.226562 234.027344 291.257812 C 234.035156 291.292969 234.070312 291.339844 234.078125 291.382812 C 234.082031 291.398438 234.085938 291.410156 234.089844 291.421875 C 234.113281 291.460938 234.132812 291.5 234.152344 291.539062 C 234.164062 291.5625 234.1875 291.585938 234.191406 291.613281 C 234.199219 291.644531 234.230469 291.679688 234.246094 291.710938 C 234.265625 291.746094 234.308594 291.789062 234.328125 291.835938 C 234.339844 291.859375 234.359375 291.882812 234.378906 291.898438 C 234.40625 291.925781 234.425781 291.957031 234.445312 291.988281 C 234.453125 292 234.46875 292.007812 234.480469 292.019531 C 234.515625 292.046875 234.542969 292.089844 234.574219 292.121094 C 234.613281 292.140625 234.644531 292.167969 234.671875 292.199219 Z M 234.671875 292.199219 "/></g><path style=" stroke:none;fill-rule:nonzero;fill:#ffffff;fill-opacity:1;" d="M 238.820312 291.871094 C 238.765625 291.847656 238.699219 291.847656 238.640625 291.867188 C 238.597656 291.871094 238.5625 291.898438 238.519531 291.90625 C 238.496094 291.910156 238.472656 291.921875 238.449219 291.933594 C 238.382812 291.910156 238.316406 291.871094 238.246094 291.882812 C 238.175781 291.898438 238.117188 291.910156 238.054688 291.929688 C 238.003906 291.949219 237.957031 291.976562 237.914062 292.007812 C 237.871094 292.042969 237.816406 292.070312 237.785156 292.117188 C 237.769531 292.140625 237.75 292.15625 237.730469 292.175781 C 237.707031 292.207031 237.679688 292.238281 237.660156 292.273438 C 237.625 292.316406 237.585938 292.355469 237.558594 292.40625 C 237.546875 292.429688 237.511719 292.449219 237.519531 292.484375 C 237.546875 292.5 237.566406 292.527344 237.585938 292.554688 C 237.621094 292.589844 237.652344 292.625 237.683594 292.667969 C 237.703125 292.699219 237.726562 292.730469 237.753906 292.757812 C 237.78125 292.78125 237.785156 292.8125 237.808594 292.839844 C 237.832031 292.867188 237.84375 292.875 237.855469 292.894531 C 237.882812 292.925781 237.898438 292.964844 237.921875 292.996094 C 237.949219 293.027344 237.96875 293.066406 237.996094 293.101562 C 238.019531 293.132812 238.03125 293.171875 238.054688 293.207031 C 238.089844 293.257812 238.113281 293.316406 238.148438 293.367188 C 238.167969 293.351562 238.183594 293.339844 238.203125 293.324219 C 238.238281 293.285156 238.253906 293.234375 238.285156 293.1875 C 238.3125 293.132812 238.34375 293.074219 238.34375 293.011719 C 238.359375 292.933594 238.347656 292.855469 238.355469 292.777344 C 238.359375 292.734375 238.363281 292.691406 238.367188 292.648438 C 238.386719 292.550781 238.414062 292.457031 238.472656 292.375 C 238.484375 292.355469 238.484375 292.328125 238.5 292.308594 C 238.527344 292.28125 238.550781 292.246094 238.574219 292.214844 C 238.609375 292.152344 238.675781 292.113281 238.722656 292.054688 C 238.753906 292.019531 238.800781 292.011719 238.835938 291.980469 C 238.859375 291.960938 238.890625 291.957031 238.917969 291.941406 L 238.917969 291.929688 C 238.890625 291.902344 238.855469 291.886719 238.820312 291.871094 Z M 238.820312 291.871094 "/><path style=" stroke:none;fill-rule:nonzero;fill:#ffffff;fill-opacity:1;" d="M 235.613281 293.824219 C 235.667969 293.84375 235.714844 293.882812 235.769531 293.890625 C 235.8125 293.898438 235.847656 293.925781 235.886719 293.9375 C 235.929688 293.949219 235.953125 293.964844 235.988281 293.972656 C 236.023438 293.980469 236.039062 293.988281 236.0625 293.996094 C 236.125 294.015625 236.191406 294.027344 236.253906 294.050781 C 236.296875 294.066406 236.34375 294.066406 236.382812 294.082031 C 236.445312 294.09375 236.5 294.113281 236.558594 294.128906 C 236.597656 294.121094 236.628906 294.097656 236.664062 294.085938 C 236.714844 294.066406 236.757812 294.035156 236.808594 294.027344 C 236.863281 294.019531 236.90625 293.976562 236.960938 293.972656 C 237.019531 293.949219 237.078125 293.917969 237.136719 293.894531 C 237.214844 293.875 237.285156 293.835938 237.359375 293.804688 C 237.40625 293.796875 237.445312 293.769531 237.488281 293.746094 C 237.46875 293.726562 237.449219 293.703125 237.429688 293.683594 C 237.382812 293.636719 237.324219 293.605469 237.265625 293.570312 C 237.230469 293.558594 237.199219 293.53125 237.164062 293.523438 C 237.085938 293.496094 237.011719 293.457031 236.933594 293.4375 C 236.851562 293.414062 236.789062 293.394531 236.714844 293.367188 C 236.664062 293.355469 236.617188 293.332031 236.5625 293.324219 C 236.511719 293.316406 236.460938 293.296875 236.414062 293.277344 C 236.367188 293.253906 236.300781 293.246094 236.246094 293.222656 C 236.226562 293.214844 236.203125 293.210938 236.183594 293.207031 C 236.09375 293.175781 236.003906 293.144531 235.917969 293.113281 C 235.8125 293.078125 235.710938 293.039062 235.609375 292.996094 C 235.578125 292.980469 235.542969 292.96875 235.507812 292.960938 C 235.472656 292.949219 235.453125 292.933594 235.425781 292.925781 C 235.398438 292.914062 235.355469 292.886719 235.316406 292.871094 C 235.277344 292.855469 235.253906 292.851562 235.226562 292.839844 C 235.132812 292.785156 235.027344 292.746094 234.933594 292.695312 C 234.835938 292.644531 234.742188 292.601562 234.65625 292.542969 C 234.625 292.519531 234.589844 292.503906 234.558594 292.484375 C 234.542969 292.503906 234.550781 292.53125 234.550781 292.554688 C 234.5625 292.601562 234.574219 292.648438 234.585938 292.691406 C 234.601562 292.734375 234.625 292.804688 234.652344 292.859375 C 234.667969 292.894531 234.675781 292.929688 234.695312 292.964844 C 234.722656 293.007812 234.746094 293.054688 234.773438 293.101562 C 234.804688 293.144531 234.824219 293.199219 234.863281 293.234375 C 234.886719 293.257812 234.898438 293.289062 234.917969 293.316406 C 234.953125 293.351562 234.992188 293.382812 235.019531 293.425781 C 235.035156 293.449219 235.058594 293.457031 235.078125 293.476562 C 235.097656 293.496094 235.121094 293.515625 235.140625 293.539062 C 235.160156 293.558594 235.199219 293.578125 235.222656 293.597656 C 235.25 293.621094 235.257812 293.632812 235.28125 293.644531 C 235.304688 293.652344 235.328125 293.660156 235.347656 293.675781 C 235.394531 293.714844 235.445312 293.742188 235.496094 293.769531 C 235.539062 293.785156 235.574219 293.804688 235.613281 293.824219 Z M 235.613281 293.824219 "/><g clip-rule="nonzero" clip-path="url(#a211371843)"><path style=" stroke:none;fill-rule:nonzero;fill:#ffffff;fill-opacity:1;" d="M 238.503906 293.203125 C 238.488281 293.167969 238.492188 293.125 238.472656 293.09375 C 238.453125 293.09375 238.460938 293.113281 238.460938 293.125 C 238.460938 293.183594 238.429688 293.234375 238.414062 293.289062 C 238.398438 293.320312 238.375 293.34375 238.367188 293.375 C 238.347656 293.441406 238.277344 293.476562 238.246094 293.539062 C 238.238281 293.558594 238.214844 293.566406 238.199219 293.578125 C 238.183594 293.589844 238.144531 293.621094 238.125 293.648438 C 238.105469 293.675781 238.058594 293.683594 238.03125 293.710938 C 237.984375 293.753906 237.925781 293.785156 237.871094 293.816406 C 237.8125 293.851562 237.765625 293.882812 237.707031 293.902344 C 237.679688 293.910156 237.65625 293.929688 237.632812 293.941406 C 237.589844 293.960938 237.546875 293.976562 237.507812 294.003906 C 237.488281 294.015625 237.464844 294.015625 237.445312 294.027344 C 237.382812 294.058594 237.320312 294.082031 237.257812 294.113281 C 237.226562 294.121094 237.199219 294.144531 237.167969 294.148438 C 237.113281 294.160156 237.074219 294.195312 237.023438 294.210938 C 236.988281 294.222656 236.957031 294.246094 236.917969 294.253906 C 236.878906 294.261719 236.851562 294.289062 236.816406 294.300781 C 236.765625 294.320312 236.726562 294.347656 236.675781 294.359375 C 236.625 294.371094 236.609375 294.394531 236.570312 294.410156 C 236.535156 294.425781 236.484375 294.460938 236.4375 294.472656 C 236.402344 294.480469 236.375 294.507812 236.34375 294.523438 C 236.300781 294.546875 236.257812 294.578125 236.210938 294.597656 C 236.164062 294.617188 236.125 294.664062 236.078125 294.6875 C 236.027344 294.710938 236.003906 294.742188 235.964844 294.769531 C 235.949219 294.78125 235.9375 294.796875 235.921875 294.808594 C 235.871094 294.84375 235.828125 294.882812 235.789062 294.925781 C 235.757812 294.957031 235.71875 294.984375 235.695312 295.023438 C 235.683594 295.042969 235.664062 295.058594 235.648438 295.078125 C 235.609375 295.125 235.578125 295.179688 235.546875 295.230469 C 235.515625 295.285156 235.492188 295.324219 235.476562 295.375 C 235.472656 295.414062 235.449219 295.445312 235.445312 295.484375 C 235.445312 295.523438 235.433594 295.550781 235.429688 295.585938 C 235.429688 295.652344 235.429688 295.71875 235.433594 295.789062 C 235.445312 295.84375 235.453125 295.902344 235.460938 295.957031 C 235.484375 296.054688 235.511719 296.144531 235.550781 296.238281 C 235.574219 296.277344 235.574219 296.328125 235.605469 296.363281 C 235.632812 296.402344 235.640625 296.433594 235.664062 296.464844 C 235.695312 296.507812 235.710938 296.566406 235.753906 296.601562 C 235.78125 296.621094 235.792969 296.65625 235.808594 296.683594 C 235.828125 296.710938 235.851562 296.71875 235.871094 296.738281 C 235.890625 296.761719 235.910156 296.78125 235.929688 296.804688 C 235.941406 296.824219 235.960938 296.832031 235.980469 296.84375 C 236.023438 296.875 236.0625 296.914062 236.113281 296.941406 C 236.136719 296.953125 236.152344 296.976562 236.175781 296.984375 C 236.160156 296.960938 236.140625 296.933594 236.132812 296.902344 C 236.121094 296.871094 236.09375 296.84375 236.082031 296.8125 C 236.074219 296.785156 236.0625 296.757812 236.046875 296.730469 C 236.03125 296.703125 236.03125 296.671875 236.019531 296.640625 C 236 296.589844 235.992188 296.535156 235.980469 296.480469 C 235.96875 296.4375 235.972656 296.394531 235.964844 296.351562 C 235.960938 296.28125 235.960938 296.210938 235.964844 296.140625 C 235.972656 296.089844 235.972656 296.035156 235.992188 295.984375 C 236.003906 295.953125 236.003906 295.914062 236.019531 295.882812 C 236.042969 295.839844 236.046875 295.789062 236.074219 295.746094 C 236.128906 295.660156 236.167969 295.5625 236.242188 295.488281 C 236.257812 295.472656 236.265625 295.445312 236.28125 295.425781 C 236.328125 295.390625 236.363281 295.34375 236.398438 295.296875 C 236.449219 295.269531 236.484375 295.226562 236.519531 295.183594 C 236.550781 295.164062 236.585938 295.148438 236.609375 295.117188 C 236.628906 295.089844 236.675781 295.0625 236.714844 295.042969 C 236.785156 294.984375 236.863281 294.933594 236.941406 294.890625 C 236.976562 294.867188 237.015625 294.839844 237.054688 294.824219 C 237.097656 294.808594 237.136719 294.777344 237.183594 294.761719 C 237.167969 294.777344 237.148438 294.789062 237.132812 294.804688 C 237.117188 294.816406 237.097656 294.824219 237.082031 294.84375 C 237.050781 294.882812 237.011719 294.914062 236.976562 294.945312 C 236.953125 294.972656 236.933594 295 236.90625 295.023438 C 236.851562 295.0625 236.816406 295.121094 236.765625 295.164062 C 236.734375 295.175781 236.730469 295.210938 236.707031 295.234375 C 236.679688 295.269531 236.636719 295.292969 236.613281 295.335938 C 236.589844 295.390625 236.53125 295.421875 236.503906 295.476562 C 236.488281 295.511719 236.457031 295.535156 236.4375 295.566406 C 236.402344 295.613281 236.371094 295.660156 236.339844 295.710938 C 236.316406 295.746094 236.277344 295.773438 236.269531 295.820312 C 236.257812 295.863281 236.226562 295.878906 236.214844 295.914062 C 236.199219 295.941406 236.183594 295.96875 236.167969 295.996094 C 236.152344 296.015625 236.148438 296.039062 236.140625 296.0625 C 236.128906 296.085938 236.121094 296.105469 236.117188 296.132812 C 236.164062 296.117188 236.210938 296.128906 236.257812 296.117188 C 236.28125 296.109375 236.308594 296.105469 236.335938 296.101562 C 236.375 296.097656 236.410156 296.078125 236.449219 296.074219 C 236.492188 296.070312 236.535156 296.046875 236.578125 296.039062 C 236.621094 296.03125 236.667969 296 236.71875 295.988281 C 236.753906 295.976562 236.78125 295.953125 236.816406 295.9375 C 236.851562 295.925781 236.875 295.902344 236.902344 295.886719 C 236.921875 295.875 236.945312 295.871094 236.960938 295.855469 C 236.996094 295.8125 237.042969 295.78125 237.082031 295.742188 C 237.121094 295.707031 237.148438 295.652344 237.1875 295.613281 C 237.203125 295.585938 237.21875 295.550781 237.242188 295.523438 C 237.265625 295.5 237.292969 295.453125 237.320312 295.417969 C 237.355469 295.371094 237.382812 295.320312 237.425781 295.273438 C 237.449219 295.242188 237.460938 295.199219 237.492188 295.167969 C 237.523438 295.140625 237.542969 295.097656 237.566406 295.058594 C 237.589844 295.023438 237.621094 294.972656 237.65625 294.933594 C 237.6875 294.898438 237.703125 294.855469 237.734375 294.820312 C 237.753906 294.800781 237.773438 294.777344 237.785156 294.753906 C 237.796875 294.726562 237.824219 294.703125 237.847656 294.679688 C 237.867188 294.65625 237.890625 294.613281 237.921875 294.582031 C 237.953125 294.550781 237.980469 294.511719 238.011719 294.476562 C 238.046875 294.441406 238.0625 294.402344 238.09375 294.375 C 238.125 294.34375 238.132812 294.320312 238.148438 294.289062 C 238.226562 294.210938 238.269531 294.105469 238.335938 294.015625 C 238.363281 293.984375 238.367188 293.945312 238.386719 293.910156 C 238.410156 293.875 238.421875 293.828125 238.445312 293.792969 C 238.453125 293.777344 238.457031 293.757812 238.460938 293.742188 C 238.46875 293.703125 238.488281 293.671875 238.496094 293.632812 C 238.5 293.578125 238.515625 293.527344 238.519531 293.476562 C 238.519531 293.40625 238.523438 293.339844 238.511719 293.269531 C 238.511719 293.25 238.511719 293.222656 238.503906 293.203125 Z M 238.503906 293.203125 "/></g></g></svg>